<?xml version="1.0" encoding="utf-8"?>
<!-- Generator: Adobe Illustrator 16.0.0, SVG Export Plug-In . SVG Version: 6.00 Build 0)  -->
<!DOCTYPE svg PUBLIC "-//W3C//DTD SVG 1.1//EN" "http://www.w3.org/Graphics/SVG/1.1/DTD/svg11.dtd">
<svg version="1.1" id="Layer_1" xmlns="http://www.w3.org/2000/svg" xmlns:xlink="http://www.w3.org/1999/xlink" x="0px" y="0px"
	 width="300px" height="300px" viewBox="0 0 300 300" enable-background="new 0 0 300 300" xml:space="preserve">
<polygon fill="#696BA9" stroke="#000000" stroke-miterlimit="10" points="167.254,220.545 80.447,180.545 80.447,116.833 
	167.254,156.834 "/>
<polygon fill="#9EA1CB" stroke="#000000" stroke-miterlimit="10" points="214.015,200.545 167.254,220.545 167.254,156.834 
	214.015,136.833 "/>
<polygon fill="#5051A2" stroke="#000000" stroke-miterlimit="10" points="214.015,136.833 167.254,156.834 80.447,116.833 
	127.208,96.833 "/>
<path fill="#696BA9" stroke="#000000" stroke-miterlimit="10" d="M218.17,180.545c-1.46,12.049-7.792,28.42-17.989,27.184
	c-10.197-1.234-29.511-8.684-26.432-30.385c1.705-12.017,10.911-20.814,21.108-19.578
	C205.056,159.002,219.63,168.497,218.17,180.545z"/>
<path fill="#9EA1CB" stroke="#000000" stroke-miterlimit="10" d="M219.288,188.152c-1.46,12.047-10.91,20.811-21.107,19.576
	c-10.197-1.236-14.638-11.803-13.177-23.85c1.46-12.048,10.342-19.688,18.465-19.78
	C216.271,163.954,220.748,176.104,219.288,188.152z"/>
<g>
	<path fill="#151313" d="M115.702,177.617c-0.6-0.338-1.201-0.723-1.798-1c-0.797-0.373-1.479-0.693-1.327-1.857
		c0.087-0.668-0.498-0.732-0.827-0.904c-1.468-0.762-2.939-1.5-4.408-2.227c-0.511-0.254-0.936-0.455-0.933-1.238
		c0.004-0.67,0.1-1.057,0.841-0.576c0.724,0.471,0.7-0.057,0.722-0.602c0.027-0.639-0.334-0.812-0.744-0.998
		c-0.087-0.039-0.173-0.086-0.26-0.131c-1.944-1.018-1.932-1.01-1.973,1.102c-0.01,0.521,0.29,1.406-0.699,0.924
		c-0.751-0.363-1.022-0.773-0.932-1.506c0.069-0.564-0.266-0.82-0.718-1.027c-0.517-0.238-1.041-0.562-1.554-0.77
		c-0.652-0.262-0.793-0.646-0.802-1.295c-0.009-0.672,0.181-0.867,0.806-0.453c0.084,0.055,0.172,0.09,0.259,0.131
		c2.058,1.006,2.064,1.008,2.008-1.238c-0.012-0.463,0.212-0.939-0.609-1.371c-0.678-0.355-0.958-0.291-0.848,0.506
		c0.118,0.852-0.367,0.564-0.876,0.34c-0.586-0.258-0.789-0.609-0.724-1.17c0.01-0.086,0.002-0.186,0.001-0.279
		c-0.047-2.367,0.509-2.559,2.684-0.959c0.291,0.215,0.508,0.402,0.46,0.74c-0.113,0.809,0.126,1.391,1.027,1.693
		c0.496,0.166,0.552,0.584,0.524,0.982c-0.039,0.549,0.001,0.982,0.726,1.326c0.612,0.287,0.758,0.068,0.691-0.516
		c-0.087-0.773,0.272-0.699,0.841-0.416c0.581,0.289,0.926,0.602,0.831,1.268c-0.092,0.654,0.22,1.01,0.825,1.258
		c0.515,0.209,1.039,0.482,1.555,0.779c0.605,0.35,0.581-0.088,0.574-0.523c-0.006-0.408,0.103-0.867-0.538-1.092
		c-0.784-0.273-1.139-0.76-1.009-1.578c0.097-0.604-0.32-0.781-0.725-0.982c-0.994-0.492-1.989-1.033-2.981-1.488
		c-0.632-0.291-0.931-0.582-0.925-1.369c0.003-0.758,0.332-0.652,0.877-0.361c0.994,0.529,1.991,0.969,2.981,1.525
		c0.645,0.363,0.789,0.189,0.8-0.467c0.012-0.721-0.265-0.988-0.84-1.246c-0.733-0.328-1.469-0.723-2.203-1.104
		c-0.805-0.416-1.812-0.58-1.623-2.082c0.067-0.537-0.485-0.605-0.792-0.795c-0.317-0.197-0.673-0.348-0.6,0.168
		c0.237,1.662-0.781,0.697-1.522,0.439c-1.332-0.461-1.859-1.23-1.656-2.605c0.101-0.68,0.021-1.482,0.017-2.23
		c-0.004-0.566-0.108-1.162,0.743-0.703c0.676,0.363,0.969,0.709,0.858,1.389c-0.098,0.6,0.201,0.867,0.734,1.131
		c2.55,1.262,5.1,2.551,7.65,3.857c0.506,0.258,0.8,0.346,0.773-0.35c-0.023-0.613-0.082-1.059-0.769-1.293
		c-0.626-0.215-0.827-0.625-0.805-1.281c0.047-1.4-0.986-1.189-1.504-1.49c-0.519-0.303-1.541-1.365-1.431,0.086
		c0.06,0.785-0.322,0.656-0.867,0.375c-0.498-0.256-0.88-0.521-0.792-1.146c0.141-1.016-0.559-1.158-1.148-1.516
		c-0.617-0.373-1.548-0.383-1.784-1.156c-0.292-0.959-0.1-1.882-0.093-2.81c0.002-0.271,0.206-0.273,0.449-0.151
		c0.259,0.131,0.518,0.259,0.778,0.389c1.896,0.947,1.923,0.961,1.893,3.022c-0.013,0.832-0.01,1.502,1.044,1.811
		c0.252,0.074,0.423,0.062,0.38-0.238c-0.229-1.582,0.704-0.891,1.512-0.49c0.789,0.391,1.771,1.256,1.632-0.42
		c-0.059-0.711,0.658-0.037,1.036,0.105c0.593,0.227,0.578,0.699,0.571,1.127c-0.006,0.402,0.096,0.936-0.512,0.65
		c-0.486-0.229-1.021-0.691-1.048,0.238c-0.029,1.025,0.569,1.092,1.093,1.381c0.519,0.285,0.493,0.699,0.46,1.043
		c-0.059,0.623,0.131,0.947,0.779,1.281c0.792,0.406,0.654-0.186,0.656-0.678c0.002-0.467,0.032-0.922-0.006-1.404
		c-0.057-0.727,0.129-1.029,0.848-0.543c0.578,0.393,0.727,0.186,0.727-0.416c-0.001-0.613-0.188-0.959-0.747-1.16
		c-0.729-0.264-0.875-0.764-0.829-1.42c0.041-0.582,0.009-1.209,0.009-1.816c0-2.411,0.417-2.708,2.582-0.885
		c0.722,0.606,1.208,2.167,2.065,3.209c0.239,0.289,0.277,1.486-0.769,0.807c-0.564-0.367-0.722-0.148-0.74,0.439
		c-0.02,0.691,0.319,0.939,0.8,1.125c0.549,0.215,0.767,0.545,0.762,1.162c-0.022,2.84-0.027,5.689,0.004,8.557
		c0.007,0.666-0.241,0.67-0.765,0.365c-0.473-0.273-0.953-0.525-1.425-0.719c-0.667-0.271-1.106-0.629-0.968-1.436
		c0.106-0.623-0.263-0.873-0.767-1.129c-0.488-0.248-0.762-0.242-0.673,0.363c0.236,1.607-1.031,0.139-1.422,0.391
		c-0.39,0.254,0.352,1.951-1.001,1.043c-0.518-0.348-0.701-0.172-0.646,0.391c0.044,0.449-0.151,0.936,0.579,1.234
		c0.085,0.035,0.173,0.092,0.26,0.133c1.2,0.555,0.446,1.283,0.773,1.908c0.362,0.689,1.5,0.32,1.434,1.543
		c-0.051,0.961,0.421,1.268,1.106,1.557c0.43,0.18,0.867,0.395,1.295,0.654c0.565,0.342,0.631,0.037,0.619-0.449
		c-0.011-0.475,0.076-0.953-0.619-1.191c-0.718-0.244-1.057-0.707-0.935-1.459c0.108-0.664-0.323-0.914-0.786-1.084
		c-0.663-0.244-0.759-0.65-0.783-1.289c-0.03-0.775,0.314-0.701,0.86-0.363c0.043,0.027,0.087,0.045,0.13,0.064
		c2.133,1.023,2.139,1.027,2.184,3.383c0.011,0.58-0.078,1.08,0.753,1.455c0.543,0.244,0.797,0.246,0.751-0.41
		c-0.04-0.578,0.041-1.107-0.019-1.689c-0.084-0.836,0.263-0.754,0.891-0.463c0.749,0.348,0.728,0.777,0.705,1.314
		c-0.017,0.41,0.003,0.842-0.005,1.26c-0.012,0.609-0.107,1.123,0.806,1.576c0.871,0.432,0.714-0.201,0.717-0.736
		c0.004-0.746,0.08-1.467-0.017-2.25c-0.179-1.455,0.226-1.883,1.552-0.939l-0.037-0.057c0.125,0.908-0.263,1.986,1.29,2.404
		c0.277,0.076,0.359,0.41,0.315,0.625c-0.254,1.244,0.59,1.508,1.372,1.879c0.771,0.367,1.542,0.756,2.312,1.168
		c0.562,0.301,0.98,0.504,0.962-0.357c-0.015-0.707-0.246-0.967-0.83-1.254c-1.4-0.688-0.504-1.355-0.679-2.033l-0.033,0.02
		c0.487,0.027,1.477,1.152,1.451,0.254c-0.044-1.475,0.718-0.857,1.501-0.467c0.596,0.301,1.191,0.562,1.785,0.84
		c0.116,0.711-0.768,1.484,0.758,2.111c1.385,0.568,0.172,1.617,1.064,2.219c0.127,0.084,0.258,0.139,0.387,0.205
		c0.474,0.24,0.948,0.467,1.42,0.721c0.454,0.242,0.842,0.467,0.819-0.275c-0.019-0.639-0.027-1.127-0.803-1.398
		c-0.408-0.141-0.836-0.41-0.74-0.988c0.165-0.99-0.43-1.303-1.139-1.627c-0.599-0.273-1.203-0.625-1.806-0.943
		c-0.134-0.924,0.011-1.898-1.363-2.373c-0.452-0.156-0.246-0.707-0.271-1.047c-0.023-0.307-0.09-0.834,0.363-0.531
		c1.512,1.006,1.126-0.34,1.151-1.176c0.016-0.598-0.015-1.223,0.008-1.814c0.028-0.766,0.104-1.49-1.001-1.891
		c-0.61-0.223-0.561-0.73-0.525-1.121c0.069-0.744-0.374-0.949-0.891-1.24c-0.699-0.393-0.612,0.133-0.61,0.598
		c0.003,0.842-0.072,1.652,0.018,2.525c0.151,1.484-0.333,1.707-1.573,0.656l0.023,0.037c-0.036-0.877,0.115-1.791-1.218-2.223
		c-0.461-0.15-0.393-0.617-0.359-0.891c0.083-0.717-0.227-1.039-0.881-1.383c-0.78-0.41-0.668,0.156-0.665,0.662
		c0.001,0.42,0.006,0.842-0.002,1.26c-0.009,0.52,0.18,1.219-0.701,0.742c-0.652-0.355-0.968-0.67-0.857-1.367
		c0.097-0.605-0.252-0.885-0.763-1.148c-0.301-0.156-0.698-0.092-0.918-0.676l0.02,0.023c0.231-0.74,0.331-1.443-0.884-1.891
		c-0.468-0.172-0.568-0.535-0.561-0.973c0.018-0.926-0.016-1.879,0.011-2.799c0.025-0.852,0.157-1.602-1.115-2.076
		c-0.681-0.256-0.38-0.859-0.437-1.289c-0.083-0.62,0.232-0.604,0.698-0.345c0.42,0.235,0.948,0.367,0.87,1.081
		c-0.079,0.727,0.136,1.135,0.907,1.506c0.944,0.451,0.599-0.422,0.609-0.871c0.036-1.525,0.049-3.063-0.001-4.629
		c-0.023-0.723,0.224-0.727,0.818-0.445c0.664,0.314,0.835,0.691,0.759,1.282c-0.017,0.129-0.013,0.274,0,0.42
		c0.061,0.672-0.273,1.535,0.154,1.926c0.759,0.691,1.691,1.009,2.55,1.416c0.545,0.262,0.345-0.354,0.374-0.67
		c0.028-0.32,0.021-0.729-0.427-0.87c-1.431-0.453-1.125-1.389-1.098-2.195c0.018-0.574-0.279-1.674,0.191-1.58
		c0.841,0.169,1.809,0.744,2.695,1.338c0.429,0.288,0.161,0.814,0.205,1.228c0.049,0.468-0.218,0.454-0.571,0.234
		c-0.635-0.396-1.046-0.528-0.995,0.415c0.055,1.034,0.686,0.95,1.114,1.213c0.47,0.291,1.201,0.824,1.38,0.666
		c0.613-0.551,1.773-0.59,1.99-1.239c0.303-0.903,0.694-0.693,1.388-0.324c0.39,0.206,0.78,0.42,1.168,0.585
		c0.553,0.236,0.763,0.572,0.745,1.177c-0.036,1.104-0.05,2.221,0.003,3.367c0.037,0.793-0.262,0.85-0.911,0.465
		c-0.473-0.281-0.951-0.521-1.425-0.719c-0.585-0.242-0.926-0.588-0.833-1.25c0.088-0.631-0.183-0.943-0.795-1.277
		c-0.756-0.412-0.719,0.059-0.701,0.611c0.017,0.477,0.039,0.959-0.005,1.398c-0.061,0.621,0.116,1.037,0.772,1.262
		c0.774,0.264,0.81,0.809,0.795,1.432c-0.027,1.061,0.009,2.154-0.014,3.217c-0.011,0.496,0.078,0.834,0.627,1.068
		c0.438,0.184,0.928,0.527,0.844-0.252c-0.091-0.852,0.217-0.934,0.951-0.545c0.881,0.467,0.673,0.998,0.676,1.514
		c0.014,2.064,0.051,4.141-0.016,6.16c-0.028,0.871,0.218,1.287,1.009,1.57c0.424,0.152,0.864,0.402,1.295,0.648
		c0.47,0.27,0.737,0.277,0.685-0.338c-0.039-0.482,0.058-0.861-0.618-1.268c-1.814-1.086-0.693-2.037-0.886-3.01
		c-0.241-1.219,0.658-0.482,1.199-0.219c1.97,0.961,1.97,0.973,1.97,3.133c0,0.232,0,0.467,0,0.701c0,2.285,0,2.277,2.149,3.27
		c0.446,0.205,0.855,0.486,0.824-0.271c-0.024-0.588-0.022-1.062-0.737-1.305c-0.729-0.248-0.885-0.736-0.833-1.398
		c0.042-0.535,0.033-1.105,0.001-1.68c-0.036-0.668,0.274-0.625,0.792-0.371c0.559,0.275,0.925,0.553,0.878,1.264
		c-0.036,0.539,0.008,1.125-0.011,1.676c-0.017,0.502-0.005,0.883,0.653,1.215c0.612,0.309,0.894,0.289,0.79-0.461
		c-0.104-0.754,0.236-0.795,0.824-0.426c0.128,0.08,0.261,0.117,0.387,0.201c0.623,0.412,1.579,0.428,1.806,1.143
		c0.305,0.959,0.15,1.912,0.102,2.816c-0.037,0.654-0.595,0.029-0.927-0.082c-0.383-0.127-0.671-0.391-0.652-0.914
		c0.02-0.529,0.144-1.033-0.717-1.449c-0.84-0.406-0.744,0.195-0.734,0.752c0.008,0.432-0.183,0.533-0.545,0.279
		c-1.01-0.705-1.014-0.035-0.988,0.748c0.028,0.854,0.029,1.697-0.001,2.521c-0.027,0.744-0.048,1.406,0.967,1.727
		c0.602,0.191,0.558,0.658,0.569,1.096c0.012,0.512,0.014,0.934-0.654,0.557c-0.312-0.176-0.939-0.746-0.85,0.012
		c0.193,1.625-0.761,0.822-1.533,0.447c-0.806-0.395-1.836-1.234-1.574,0.467c-0.996-0.195-1.418,0.457-2,0.998
		c-0.297,0.275-1.549-0.699-2.369-1.131c-0.098-0.051-0.279-0.285-0.277-0.357c0.037-1-0.226-1.738-1.347-2.17
		c-0.363-0.141-0.264-0.66-0.238-0.934c0.066-0.711-0.302-0.953-0.855-1.26c-0.687-0.381-0.639,0.074-0.632,0.562
		c0.012,0.848,0.008,1.688,0.01,2.529l0.028-0.016c-0.74-0.457-1.842-0.451-1.651-2.029c0.078-0.641-0.517-0.688-0.854-0.908
		c-0.387-0.252-0.648-0.303-0.642,0.246c0.023,1.828,0.02,3.645,0.004,5.455c-0.005,0.547,0.298,0.766,0.666,0.898
		c0.778,0.283,0.911,0.76,0.912,1.51c0.001,0.961-0.588,0.402-1.059,0.205c-0.042-0.018-0.085-0.043-0.13-0.064
		c-1.916-0.949-1.937-0.961-1.924,1.141c0.004,0.781-0.005,1.422-0.989,0.732c-0.451-0.314-0.601-0.139-0.58,0.342
		c0.025,0.57,0.033,1.137-0.002,1.678c-0.04,0.584,0.057,1.031,0.743,1.258c0.587,0.193,0.835,0.549,0.839,1.25
		c0.004,0.711-0.154,0.914-0.853,0.525c-1.197-0.67-0.64,0.52-0.62,1.127l0.021-0.01c-0.754-0.207-1.741-0.006-1.675-1.686
		c0.025-0.654-0.383-0.789-0.772-0.986c-0.398-0.199-0.816-0.441-0.765,0.232c0.003,0.049,0.002,0.094-0.001,0.139
		c-0.066,0.789,0.348,2.15-0.19,2.283c-0.558,0.139-1.562-0.633-2.371-1.023c-0.688-0.334-1.378-0.678-2.066-1.043
		c-0.787-0.418-1.849-0.559-1.613-2.061c0.052-0.33-0.271-0.549-0.546-0.682c-1.823-0.873-0.741-1.814-0.955-2.691
		c-0.214-0.873,0.013-1.379,0.968-0.73c0.618,0.42,0.555-0.098,0.554-0.52c-0.003-1.119,0.003-2.232-0.003-3.352
		c-0.002-0.445,0.003-0.92,0.57-0.549c1.251,0.818,0.985-0.227,0.963-0.992c1.603,0.354,3.236,1.447,4.848,2.289
		c1.109,0.58,1.599,0.537,1.41-0.789c0.727-0.023,1.501,0.602,2.252,0.963c0.581,0.279,0.832,0.27,0.83-0.432
		c0-0.67-0.267-0.916-0.77-1.125c-0.805-0.332-1.621-0.957-2.417-1.096c0.025-0.311,0.079-0.607,0.062-0.934
		c-0.015-0.293,0.176-0.637-0.254-0.926c-0.366-0.246-0.807-0.494-1.119-0.484c-0.334,0.01-0.188,0.596-0.13,0.949
		c0.176,1.059,1.086,0.658,1.47,1.373c0.037,0.592,0.073,1.184,0.109,1.773c-0.622-0.584-1.272-0.771-1.904-1.072
		c-0.803-0.385-1.483-0.725-1.274-1.834c0.081-0.426-0.23-0.652-0.562-0.779c-0.317-0.121-0.938-0.594-0.88-0.182
		c0.257,1.854-0.946,0.852-1.744,0.656c0.214-1.838,0.214-1.838-1.548-2.477c0.206-1.801,0.206-1.801-1.549-2.477
		c0.031-0.26,0.103-0.502,0.079-0.781c-0.029-0.338,0.218-0.701-0.278-1.055c-0.318-0.229-0.748-0.471-0.982-0.41
		c-0.332,0.086-0.214,0.68-0.108,1.09c0.217,0.848,0.936,0.58,1.322,1.137c0.013,1.107,0.453,1.975,1.545,2.477
		c-0.084,1.158,0.585,1.898,1.542,2.477C115.83,176.553,115.787,177.094,115.702,177.617z M120.348,183.996
		c0-2.617,0-2.607-2.256-3.617c-0.463-0.207-0.837-0.414-0.822,0.303c0.011,0.59,0.144,0.953,0.726,1.186
		c0.455,0.184,0.826,0.385,0.849,1.111c0.026,0.816-0.109,1.105-0.972,0.662c-0.899-0.461-2.283-1.832-2.205,0.248
		c0.015,0.385-0.499,0.014-0.776-0.137c-0.877-0.471-0.763,0.67-0.638,0.777c1.011,0.873,1.335,2.057,1.986,3.051
		c0.429,0.65,1.662,1.145,2.349,1.164c0.538,0.014,0.118-1.221,0.205-1.854c0.017-0.127,0.017-0.271,0-0.418
		c-0.079-0.701,0.167-0.891,0.792-0.463c0.656,0.451,0.827,0.209,0.77-0.471C120.312,185.008,120.348,184.508,120.348,183.996z
		 M138.807,174.92c0-0.557-0.018-1.125,0.004-1.672c0.022-0.529-0.07-0.895-0.69-1.195c-0.566-0.275-0.805-0.193-0.723,0.443
		c0.112,0.861-0.297,0.812-0.907,0.418c-0.671-0.432-0.622,0.07-0.649,0.545c-0.032,0.568,0.117,0.951,0.706,1.146
		c0.687,0.227,0.952,0.693,0.848,1.361c-0.094,0.6,0.217,0.852,0.74,1.135c0.627,0.34,0.703,0.049,0.678-0.504
		C138.787,176.027,138.805,175.479,138.807,174.92z M123.604,173.119c-0.294-0.148-0.514-0.287-0.724-0.359
		c-0.396-0.137-0.973-0.787-0.992,0.121c-0.016,0.775,0.188,1.223,0.932,1.479c0.801,0.275,0.623,0.82,0.638,1.307
		c0.01,0.334-0.011,0.701,0.438,0.883c0.358,0.143,0.951,0.719,1.023,0.262c0.135-0.838,0.205-1.791,0.001-2.766
		C124.784,173.393,124,173.451,123.604,173.119z M123.457,153.846c0,0.465,0.01,0.936-0.002,1.396
		c-0.014,0.561-0.095,1.018,0.74,1.428c0.756,0.373,0.827,0.055,0.806-0.6c-0.033-0.994-0.042-1.98,0.002-2.934
		c0.032-0.67-0.102-1.039-0.829-1.402c-0.708-0.354-0.753-0.02-0.722,0.572C123.479,152.83,123.457,153.334,123.457,153.846z
		 M121.978,153.932c-0.38-0.697,0.543-1.311-0.8-2.029c-1.293-0.693-0.817,0.555-0.773,1.146c0.046,0.619-0.643,1.377,0.763,2.08
		C122.523,155.805,121.598,154.236,121.978,153.932z M116.574,171.264c-0.56-0.379-0.88-0.398-0.839,0.354
		c0.03,0.564,0.121,0.895,0.709,1.201c0.592,0.309,0.841,0.268,0.814-0.43C117.237,171.84,117.196,171.434,116.574,171.264z
		 M129.675,150.314c-0.1,0.559,0.142,0.863,0.698,1.152c0.647,0.338,0.77,0.094,0.78-0.521c0.012-0.707-0.374-0.844-0.821-1.109
		C129.724,149.477,129.586,149.715,129.675,150.314z M115.682,159.916c0.117-0.617-0.174-0.938-0.772-1.234
		c-0.601-0.299-0.668-0.023-0.703,0.494c-0.046,0.695,0.27,0.941,0.828,1.242C115.646,160.744,115.767,160.514,115.682,159.916z
		 M134.173,177.49c0.158-0.482-0.113-0.789-0.676-1.076c-0.534-0.273-0.775-0.277-0.752,0.383c0.02,0.607,0.065,0.982,0.759,1.307
		C134.12,178.391,134.239,178.15,134.173,177.49z M135.862,176.633c-0.011,0.496-0.125,0.975,0.647,1.312
		c0.486,0.213,0.818,0.348,0.765-0.344c-0.038-0.514,0.1-0.977-0.663-1.295C136.151,176.115,135.735,175.869,135.862,176.633z
		 M125.75,152.412c0.515,0.332,0.785,0.34,0.804-0.316c0.022-0.742-0.313-0.953-0.857-1.254c-0.609-0.338-0.691-0.096-0.703,0.463
		C124.979,151.947,125.228,152.248,125.75,152.412z M127.328,153.363c-0.483-0.316-0.818-0.414-0.781,0.293
		c0.029,0.521,0.014,0.902,0.66,1.18c0.509,0.217,0.903,0.436,0.883-0.346C128.075,153.857,127.864,153.547,127.328,153.363z
		 M115.002,150.486c-0.5-0.328-0.8-0.352-0.797,0.32c0.002,0.604,0.181,0.904,0.741,1.184c0.512,0.256,0.791,0.316,0.764-0.357
		C115.687,151.07,115.636,150.664,115.002,150.486z M122.702,182.723c-0.487-0.305-0.816-0.43-0.815,0.266
		c0.001,0.654,0.168,0.982,0.787,1.25c0.458,0.197,0.805,0.404,0.794-0.301C123.46,183.293,123.324,182.896,122.702,182.723z
		 M127.186,158.139c0.508,0.301,0.929,0.525,0.904-0.281c-0.018-0.617-0.207-0.914-0.749-1.174
		c-0.463-0.221-0.848-0.439-0.791,0.301C126.588,157.484,126.516,157.938,127.186,158.139z M125.724,157.549
		c-0.554-0.393-0.73-0.225-0.731,0.387c-0.002,0.6,0.149,0.881,0.724,1.162c0.583,0.285,0.851,0.299,0.837-0.426
		C126.541,157.969,126.22,157.742,125.724,157.549z M112.586,160.008c0.081-0.545-0.108-0.871-0.694-1.186
		c-0.719-0.387-0.705,0.039-0.737,0.584c-0.042,0.682,0.306,0.854,0.787,1.127C112.584,160.896,112.658,160.574,112.586,160.008z
		 M111.041,160.861c0.13-0.635-0.233-0.902-0.792-1.197c-0.676-0.357-0.578,0.143-0.625,0.578c-0.074,0.689,0.271,0.92,0.817,1.215
		C111.115,161.82,111.076,161.377,111.041,160.861z M111.04,170.91c0.107-0.551-0.133-0.855-0.697-1.143
		c-0.571-0.291-0.736-0.166-0.723,0.438c0.013,0.578,0.151,0.896,0.731,1.195C110.942,171.701,111.114,171.527,111.04,170.91z"/>
	<path fill="#151313" d="M129.672,177.887c0.786,0.309,1.723,0.4,1.557,1.873c-0.061,0.537,0.395,0.693,0.729,0.863
		c0.994,0.506,1.987,1.031,2.981,1.496c0.617,0.291,0.852,0.559,0.95,1.379c0.208,1.742,1.446,1.168,2.17,1.834
		c0.489,0.449,0.771,0.271,0.761-0.365c-0.009-0.555-0.069-0.947-0.692-1.17c-0.546-0.193-0.876-0.494-0.887-1.246
		c-0.013-0.775,0.256-0.883,0.905-0.463c0.518,0.336,0.723,0.16,0.656-0.398c-0.097-0.789,0.183-0.875,0.862-0.521
		c0.623,0.322,0.885,0.664,0.8,1.291c-0.007,0.043-0.019,0.105,0.003,0.139c0.709,1.098,1.587,2.062,2.094,3.336
		c0.141,0.352,0.989,0.604,0.895-0.328c-0.055-0.535-0.047-1.055-0.001-1.541c0.062-0.67-0.126-1.125-0.836-1.355
		c-0.715-0.232-0.71-0.723-0.737-1.305c-0.032-0.674,0.24-0.623,0.76-0.393c2.406,1.066,2.404,1.047,2.404,3.693
		c0,0.561-0.023,1.111,0.008,1.686c0.033,0.627-0.083,0.99-0.762,0.518c-0.811-0.562-0.913-0.033-0.754,0.617
		c0.208,0.857-0.751,1.652,0.698,2.576c1.59,1.012,0.594,1.73,0.777,2.549c0.158,0.707,0.225,1.607-0.868,0.885
		c-0.529-0.352-0.656-0.096-0.637,0.43c0.028,0.807,0,1.588,0.009,2.389c0.009,0.869-0.326,1.77,1.155,2.354
		c0.556,0.217,0.321,0.787,0.371,1.184c0.07,0.576-0.167,0.662-0.667,0.398c-0.994-0.525-1.99-0.963-2.981-1.523
		c-0.743-0.422-0.942-0.232-0.952,0.551c-0.027,2.279-0.061,2.262-2.181,1.191c-0.562-0.283-1.125-0.59-1.686-0.842
		c-0.554-0.25-0.878-0.51-0.878-1.258c0.001-0.754,0.247-0.873,0.911-0.473c0.515,0.307,1.039,0.502,1.554,0.801
		c0.525,0.307,0.66,0.127,0.651-0.406s-0.043-0.967-0.683-1.197c-0.126-0.045-0.258-0.127-0.387-0.193
		c-1.983-1.031-1.983-1.031-2.022-3.25c-0.01-0.547,0.145-1.031-0.72-1.467c-0.891-0.449-0.678,0.262-0.694,0.771
		c-0.013,0.367-0.028,0.736,0.003,1.123c0.06,0.734-0.048,1.193-0.869,0.656c-0.614-0.404-0.675-0.049-0.698,0.484
		c-0.029,0.648,0.246,0.939,0.764,1.125c0.628,0.227,0.807,0.621,0.818,1.289c0.012,0.701-0.235,0.723-0.828,0.453
		c-2.366-1.074-2.364-1.051-2.364-3.607c0-0.607-0.028-1.23,0.005-1.82c0.037-0.656-0.318-0.895-0.809-1.156
		c-0.496-0.266-0.709-0.199-0.673,0.377c0.032,0.527,0.02,1.039,0.001,1.541c-0.016,0.459,0.202,1.162-0.608,0.764
		c-0.656-0.324-1.113-0.625-0.985-1.451c0.063-0.408-0.107-0.834-0.559-0.982c-1.007-0.33-0.998-0.982-0.983-1.744
		c0.028-1.434-0.002-2.898,0.014-4.34c0.006-0.555-0.22-1.322,0.748-0.848c1.023,0.502,0.822,1.084,0.826,1.709
		c0.008,0.986,0.026,1.979-0.007,2.941c-0.02,0.564,0.098,0.877,0.7,1.174c0.612,0.301,0.854,0.242,0.812-0.467
		c-0.048-0.814-0.025-1.604-0.007-2.387c0.019-0.842-0.371-2.205,1.145-1.217c0.317,0.207,0.449-0.092,0.37-0.41
		c-0.274-1.088,0.904-2.293-1.273-3.25c-0.032-1.244-0.746-2.096-1.729-2.908c-0.08-0.066-0.473-1.682,0.729-0.988
		c1.277,0.74,0.49-0.869,0.85-1.18L129.672,177.887z M135.012,190.447c2.253,1.135,2.253,1.135,2.253-1.197
		c0-2.535,0-2.535-2.319-3.705c-2.185-1.102-2.185-1.102-2.185,1.297C132.762,189.311,132.762,189.311,135.012,190.447z
		 M138.934,194.895c0,0.652,0.02,1.318-0.005,1.961c-0.027,0.664,0.403,0.766,0.782,0.979c0.392,0.217,0.677,0.297,0.646-0.258
		c-0.027-0.48,0.016-0.928-0.009-1.408c-0.042-0.816-0.079-1.596,1.017-0.852c0.507,0.344,0.549,0.006,0.539-0.418
		c-0.015-0.566-0.06-1.158,0.009-1.674c0.116-0.863-0.419-1.078-0.953-1.295c-1.017-0.414-0.065,1.359-0.781,1.193
		c-0.626-0.143-1.457-0.824-1.256,0.504C138.989,194.068,138.932,194.473,138.934,194.895z M141.899,188.162
		c0-0.555-0.028-1.127,0.008-1.662c0.038-0.555-0.105-0.887-0.698-1.166c-0.522-0.244-0.783-0.275-0.757,0.385
		c0.044,1.131,0.033,2.238,0.004,3.334c-0.016,0.568,0.139,0.898,0.717,1.191c0.546,0.277,0.779,0.229,0.735-0.41
		C141.868,189.26,141.899,188.717,141.899,188.162z M131.981,192.236c0.564,0.451,0.678,0.166,0.696-0.4
		c0.019-0.627-0.233-0.883-0.76-1.164c-0.581-0.311-0.711-0.135-0.72,0.443C131.186,191.734,131.381,192.062,131.981,192.236z
		 M142.683,191.139c-0.55-0.438-0.689-0.189-0.707,0.385c-0.018,0.621,0.227,0.887,0.757,1.168c0.557,0.295,0.733,0.189,0.732-0.418
		C143.465,191.66,143.289,191.322,142.683,191.139z"/>
	<path fill="#151313" d="M100.309,138.802c0-1.633,0.033-3.25-0.015-4.904c-0.021-0.745,0.177-0.865,0.865-0.51
		c3.019,1.562,6.038,3.082,9.057,4.57c0.71,0.35,0.98,0.676,0.97,1.496c-0.041,3.244-0.032,6.514-0.005,9.793
		c0.006,0.729-0.208,0.873-0.889,0.521c-3.062-1.575-6.125-3.118-9.186-4.633c-0.634-0.314-0.818-0.655-0.806-1.303
		C100.33,142.169,100.309,140.48,100.309,138.802z M105.803,137.478c-1.079-0.544-2.159-1.066-3.239-1.643
		c-0.503-0.269-0.67-0.172-0.665,0.379c0.023,2.253,0.027,4.497-0.001,6.725c-0.008,0.602,0.156,0.885,0.728,1.164
		c2.072,1.012,4.146,2.064,6.219,3.133c0.5,0.258,0.674,0.166,0.669-0.383c-0.021-2.252-0.026-4.498,0.003-6.724
		c0.008-0.609-0.167-0.898-0.733-1.159C107.791,138.512,106.797,137.979,105.803,137.478z"/>
	<path fill="#151313" d="M105.763,184.115c-1.553-0.783-3.105-1.592-4.657-2.336c-0.61-0.291-0.816-0.586-0.811-1.266
		c0.03-3.297,0.028-6.609,0.001-9.936c-0.005-0.705,0.153-0.912,0.86-0.547c3.02,1.561,6.039,3.082,9.057,4.568
		c0.725,0.357,0.978,0.717,0.968,1.518c-0.034,3.248-0.032,6.514,0,9.795c0.007,0.748-0.22,0.857-0.89,0.5
		C108.783,185.609,107.273,184.877,105.763,184.115z M105.36,182.182c1.24,0.625,2.279,1.1,3.312,1.686
		c0.712,0.406,0.859,0.184,0.847-0.527c-0.04-2.121-0.05-4.23,0.003-6.305c0.021-0.816-0.254-1.129-0.957-1.467
		c-1.9-0.912-3.802-1.85-5.7-2.885c-0.848-0.461-1.019-0.227-0.972,0.621c0.062,1.102,0.004,2.152,0.018,3.23
		c0.015,1.26-0.396,2.736,0.19,3.74C102.786,181.447,104.374,181.566,105.36,182.182z"/>
	<path fill="#151313" d="M139.669,164.572c-1.509-0.76-3.021-1.557-4.527-2.268c-0.729-0.346-0.975-0.721-0.967-1.52
		c0.035-3.248,0.032-6.514,0.001-9.795c-0.007-0.748,0.226-0.84,0.892-0.496c3.061,1.574,6.125,3.117,9.186,4.633
		c0.612,0.303,0.814,0.592,0.807,1.268c-0.027,3.297-0.037,6.604,0.006,9.938c0.012,0.869-0.32,0.834-0.998,0.473
		C142.604,166.023,141.136,165.312,139.669,164.572z M143.449,160.557c0-1.076-0.031-2.166,0.011-3.217
		c0.025-0.631-0.122-0.963-0.775-1.277c-2.029-0.979-4.059-2.016-6.089-3.064c-0.535-0.277-0.767-0.271-0.756,0.383
		c0.035,2.258,0.034,4.5,0,6.727c-0.01,0.664,0.274,0.885,0.78,1.137c2.03,1.004,4.061,2.008,6.089,3.078
		c0.69,0.365,0.765,0.072,0.748-0.539C143.425,162.693,143.449,161.631,143.449,160.557z"/>
	<path fill="#151313" d="M117.22,143.246c0.021,0.797,0.048,1.596,0.063,2.39c0.009,0.515,0.087,1.07-0.676,0.659
		c-0.597-0.322-1.036-0.604-0.914-1.35c0.108-0.665-0.271-0.851-0.802-1.241c-1.641-1.208-0.477-2.038-0.707-3.065
		c-0.236-1.049,0.607-0.283,1.044-0.13c0.281,0.1,0.569,0.357,0.504,0.687c-0.269,1.363,0.838,1.537,1.512,2.089L117.22,143.246z"/>
	<path fill="#151313" d="M126.588,169.562c-1.164-0.363-1.887-0.986-1.61-2.389c0.104-0.527,0.041-1.174,0.053-1.766l-0.031,0.021
		c1.354,0.379,1.762,1.254,1.574,2.527c-0.074,0.496-0.017,1.082-0.018,1.625L126.588,169.562z"/>
	<path fill="#151313" d="M143.366,176.414c0.562,0.285,1.422,0.314,1.597,1.061c0.237,1.016,0.123,2.008-0.026,2.879
		c-0.058,0.332-0.696-0.221-1.069-0.383c-0.459-0.199-0.412-0.561-0.418-0.889c-0.016-0.895-0.033-1.789-0.049-2.684
		L143.366,176.414z"/>
	<path fill="#151313" d="M123.558,191.234c0.758,0.641,1.539,0.906,2.304,1.268c0.742,0.35,0.681,0.777,0.714,1.336
		c0.037,0.652-0.199,0.736-0.746,0.402c-0.3-0.182-0.604-0.311-0.907-0.463c-1.635-0.824-1.635-0.824-1.346-2.553
		C123.579,191.223,123.558,191.234,123.558,191.234z"/>
	<path fill="#151313" d="M114.204,145.745c0.085,0.74-0.068,0.978-0.743,0.639c-0.687-0.346-0.886-0.688-0.886-1.418
		c0-0.716,0.276-0.717,0.854-0.429C114.036,144.84,114.357,145.187,114.204,145.745z"/>
	<path fill="#151313" d="M144.277,203.514c-0.712-0.219-0.823-0.631-0.85-1.273c-0.033-0.83,0.342-0.682,0.931-0.412
		c0.745,0.344,0.665,0.787,0.702,1.326C145.11,203.908,144.802,203.936,144.277,203.514z"/>
	<path fill="#151313" d="M117.246,143.285c0.228-0.494-0.644-2.095,0.802-1.378c0.602,0.3,0.784,0.573,0.793,1.243
		c0.026,1.586-1.063,0.12-1.622,0.096L117.246,143.285z"/>
	<path fill="#151313" d="M120.215,157.832c0.275,0.336,0.145,0.57,0.148,0.83c0.007,0.578,0.172,1.311-0.762,0.768
		c-0.565-0.33-0.809-0.541-0.832-1.256c-0.029-0.889,0.337-0.838,0.99-0.434c0.154,0.094,0.319,0.084,0.478,0.119
		C120.234,157.857,120.215,157.832,120.215,157.832z"/>
	<path fill="#151313" d="M125.025,163.756c-0.35-1.676,0.332-1.719,1.557-0.9l-0.024-0.037c0.003,1.826,0.003,1.826-1.558,0.896
		L125.025,163.756z"/>
	<path fill="#151313" d="M125.031,165.408c-0.789-0.346-1.857-0.439-1.566-1.916c0.198-1.006,1.065,0.293,1.561,0.264L125,163.715
		c0,0.572,0,1.145,0,1.715L125.031,165.408z"/>
	<path fill="#151313" d="M143.399,176.398c-0.042-0.021-0.085-0.037-0.128-0.064c-0.629-0.383-1.509-0.375-1.397-1.723
		c0.078-0.922,0.68-0.4,1.079-0.105c1.035,0.768,0.476,1.307,0.415,1.908C143.366,176.414,143.399,176.398,143.399,176.398z"/>
	<path fill="#151313" d="M121.882,167.189c0.296-0.369-0.582-1.869,0.657-1.332c0.546,0.238,0.961,0.432,0.948,1.289
		c-0.013,0.75-0.247,0.852-0.88,0.438c-0.25-0.164-0.505-0.299-0.76-0.449C121.845,167.133,121.882,167.189,121.882,167.189z"/>
	<path fill="#151313" d="M135.021,188.914c-0.61-0.197-0.839-0.58-0.848-1.254c-0.01-0.695,0.16-0.93,0.858-0.547
		c0.572,0.312,0.848,0.592,0.838,1.281C135.862,189.066,135.733,189.414,135.021,188.914z"/>
	<path fill="#151313" d="M103.37,140.179c0-2.348,0-2.348,2.15-1.264c2.572,1.298,2.572,1.298,2.572,4.047
		c0,2.358,0,2.358-2.159,1.27C103.37,142.939,103.37,142.939,103.37,140.179z"/>
	<path fill="#151313" d="M105.767,180.805c-2.396-1.207-2.396-1.207-2.396-3.848c0-2.469,0-2.469,2.317-1.301
		c2.405,1.213,2.405,1.213,2.405,3.865C108.092,181.979,108.092,181.979,105.767,180.805z"/>
	<path fill="#151313" d="M139.693,156.15c2.294,1.156,2.294,1.156,2.294,3.629c0,2.637,0,2.637-2.417,1.416
		c-2.305-1.162-2.305-1.162-2.305-3.643C137.265,154.926,137.265,154.926,139.693,156.15z"/>
</g>
</svg>
