<?xml version="1.0" encoding="utf-8"?>
<!-- Generator: Adobe Illustrator 16.0.0, SVG Export Plug-In . SVG Version: 6.00 Build 0)  -->
<!DOCTYPE svg PUBLIC "-//W3C//DTD SVG 1.1//EN" "http://www.w3.org/Graphics/SVG/1.1/DTD/svg11.dtd">
<svg version="1.1" id="Layer_1" xmlns="http://www.w3.org/2000/svg" xmlns:xlink="http://www.w3.org/1999/xlink" x="0px" y="0px"
	 width="300px" height="300px" viewBox="0 0 300 300" enable-background="new 0 0 300 300" xml:space="preserve">
<circle fill="#5051A2" stroke="#000000" stroke-miterlimit="10" cx="141.158" cy="135.166" r="50"/>
<circle fill="#9EA1CB" stroke="#000000" stroke-miterlimit="10" cx="149.158" cy="139.165" r="50"/>
<polygon fill="#5051A2" stroke="#000000" stroke-miterlimit="10" points="53.021,154.164 23.021,154.164 33.021,124.164 
	43.021,124.164 "/>
<polygon fill="#5051A2" stroke="#000000" stroke-miterlimit="10" points="256.173,154.164 246.173,154.164 236.173,124.164 
	266.173,124.164 "/>
<line fill="none" stroke="#000000" stroke-width="2" stroke-miterlimit="10" x1="95.216" y1="135.165" x2="38.021" y2="135.165"/>
<line fill="none" stroke="#000000" stroke-width="2" stroke-miterlimit="10" x1="199.158" y1="135.165" x2="251.173" y2="135.165"/>
<line fill="none" stroke="#000000" stroke-width="2" stroke-miterlimit="10" x1="38.021" y1="135.165" x2="38.021" y2="139.164"/>
<line fill="none" stroke="#000000" stroke-width="2" stroke-miterlimit="10" x1="251.173" y1="135.165" x2="251.173" y2="139.164"/>
<g>
	<path fill-rule="evenodd" clip-rule="evenodd" fill="#131111" d="M141.775,154.126c-0.749-0.041-1.499-0.135-2.244-0.109
		c-0.995,0.034-1.846,0.062-1.656-1.371c0.109-0.821-0.621-0.555-1.032-0.561c-1.833-0.025-3.668-0.021-5.501-0.006
		c-0.638,0.006-1.168,0.021-1.164-0.886c0.004-0.774,0.125-1.277,1.049-1.153c0.904,0.122,0.874-0.473,0.901-1.114
		c0.033-0.754-0.417-0.743-0.929-0.719c-0.108,0.005-0.216,0.002-0.324,0c-2.427-0.042-2.411-0.042-2.462,2.418
		c-0.013,0.609,0.362,1.455-0.872,1.475c-0.937,0.016-1.276-0.299-1.163-1.196c0.087-0.692-0.332-0.793-0.896-0.769
		c-0.646,0.027-1.299-0.042-1.94,0.018c-0.814,0.077-0.99-0.284-1.001-1.027c-0.011-0.771,0.226-1.107,1.006-0.993
		c0.105,0.015,0.215,0.003,0.323,0.001c2.569-0.039,2.577-0.039,2.506-2.598c-0.015-0.528,0.265-1.207-0.76-1.227
		c-0.847-0.016-1.196,0.22-1.059,1.076c0.147,0.914-0.458,0.866-1.093,0.903c-0.731,0.043-0.984-0.245-0.903-0.929
		c0.012-0.106,0.003-0.215,0.001-0.324c-0.059-2.703,0.636-3.248,3.349-2.667c0.364,0.078,0.634,0.167,0.575,0.586
		c-0.141,0.999,0.157,1.531,1.281,1.356c0.619-0.096,0.69,0.352,0.655,0.828c-0.048,0.655,0.002,1.134,0.906,1.107
		c0.764-0.023,0.946-0.361,0.863-0.996c-0.109-0.842,0.339-0.966,1.05-0.97c0.725-0.004,1.155,0.156,1.037,0.979
		c-0.116,0.808,0.275,1.038,1.029,0.971c0.643-0.057,1.296-0.047,1.94-0.004c0.756,0.05,0.725-0.44,0.717-0.938
		c-0.008-0.467,0.128-1.062-0.671-0.947c-0.979,0.14-1.422-0.215-1.259-1.235c0.121-0.753-0.4-0.715-0.904-0.711
		c-1.241,0.009-2.483-0.035-3.721,0.017c-0.789,0.033-1.161-0.13-1.155-1.042c0.005-0.877,0.415-0.945,1.095-0.927
		c1.24,0.032,2.484-0.041,3.721,0.026c0.804,0.043,0.985-0.241,0.998-1.005c0.015-0.838-0.33-0.987-1.048-0.949
		c-0.915,0.048-1.833,0.021-2.75,0.009c-1.004-0.012-2.261,0.384-2.025-1.46c0.084-0.657-0.606-0.414-0.988-0.456
		c-0.396-0.043-0.84-0.008-0.749,0.543c0.296,1.781-0.975,1.259-1.9,1.394c-1.662,0.242-2.321-0.339-2.067-2.042
		c0.126-0.844,0.027-1.723,0.021-2.585c-0.005-0.65-0.135-1.277,0.927-1.244c0.844,0.026,1.21,0.255,1.071,1.105
		c-0.122,0.747,0.251,0.883,0.917,0.877c3.182-0.028,6.365-0.025,9.547-0.002c0.632,0.004,0.999-0.066,0.965-0.852
		c-0.029-0.695-0.102-1.175-0.959-1.046c-0.781,0.118-1.032-0.239-1.004-1.009c0.059-1.644-1.231-0.799-1.878-0.846
		c-0.647-0.047-1.923-0.678-1.786,0.932c0.075,0.873-0.402,0.946-1.082,0.939c-0.622-0.006-1.099-0.091-0.99-0.862
		c0.176-1.253-0.697-1.011-1.433-1.081c-0.77-0.072-1.932,0.46-2.226-0.296c-0.365-0.937-0.125-2.114-0.116-3.188
		c0.002-0.314,0.257-0.436,0.56-0.436c0.323,0,0.647-0.003,0.971-0.005c2.367-0.01,2.4-0.01,2.362,2.387
		c-0.016,0.966-0.013,1.738,1.303,1.481c0.314-0.061,0.528-0.174,0.474-0.495c-0.286-1.693,0.878-1.439,1.887-1.447
		c0.984-0.008,2.21,0.419,2.037-1.435c-0.074-0.785,0.821-0.424,1.293-0.479c0.74-0.086,0.72,0.469,0.712,0.967
		c-0.008,0.468,0.12,1.024-0.639,1.049c-0.608,0.02-1.275-0.205-1.308,0.884c-0.036,1.2,0.71,0.93,1.364,0.958
		c0.648,0.028,0.615,0.521,0.574,0.937c-0.073,0.753,0.163,1.016,0.972,1.023c0.989,0.009,0.816-0.593,0.819-1.164
		c0.003-0.539,0.04-1.082-0.008-1.617c-0.071-0.803,0.161-1.261,1.058-1.118c0.721,0.115,0.907-0.209,0.906-0.903
		c-0.001-0.708-0.235-0.997-0.931-0.905c-0.909,0.12-1.093-0.372-1.035-1.155c0.051-0.697,0.011-1.402,0.011-2.103
		c0-2.78,0.52-3.365,3.222-2.523c0.901,0.28,1.508,1.797,2.578,2.501c0.298,0.196,0.345,1.556-0.96,1.38
		c-0.704-0.095-0.901,0.249-0.923,0.937c-0.025,0.81,0.398,0.897,0.998,0.833c0.686-0.073,0.957,0.181,0.951,0.898
		c-0.027,3.29-0.034,6.581,0.005,9.87c0.009,0.764-0.301,0.913-0.955,0.867c-0.59-0.041-1.19-0.051-1.778,0.001
		c-0.833,0.074-1.38-0.083-1.208-1.095c0.133-0.78-0.328-0.854-0.957-0.857c-0.608-0.002-0.951,0.166-0.84,0.813
		c0.294,1.717-1.287,0.76-1.775,1.279c-0.487,0.519,0.439,2.046-1.25,1.786c-0.646-0.1-0.875,0.208-0.806,0.826
		c0.055,0.494-0.188,1.167,0.723,1.088c0.107-0.009,0.216,0.004,0.324,0c1.498-0.057,0.557,1.222,0.965,1.753
		c0.451,0.586,1.871-0.502,1.789,0.946c-0.064,1.139,0.526,1.218,1.381,1.152c0.536-0.041,1.082-0.048,1.617,0.001
		c0.705,0.065,0.787-0.324,0.772-0.877c-0.014-0.542,0.095-1.145-0.773-1.014c-0.896,0.135-1.319-0.202-1.167-1.139
		c0.135-0.83-0.403-0.868-0.981-0.794c-0.827,0.104-0.947-0.309-0.977-1.032c-0.036-0.879,0.393-0.992,1.074-0.921
		c0.053,0.006,0.108,0.002,0.162,0c2.662-0.061,2.67-0.061,2.725,2.631c0.014,0.663-0.097,1.292,0.94,1.241
		c0.678-0.034,0.994-0.18,0.938-0.909c-0.05-0.644,0.05-1.301-0.024-1.939c-0.105-0.915,0.328-1.023,1.112-1.053
		c0.935-0.035,0.908,0.473,0.88,1.106c-0.021,0.484,0.004,0.971-0.006,1.456c-0.015,0.71-0.134,1.36,1.006,1.351
		c1.087-0.009,0.891-0.647,0.895-1.267c0.005-0.863,0.1-1.74-0.021-2.586c-0.223-1.575,0.282-2.306,1.937-1.988l-0.045-0.043
		c0.155,0.975-0.329,2.444,1.61,2.024c0.345-0.075,0.448,0.262,0.393,0.536c-0.317,1.583,0.737,1.397,1.712,1.371
		c0.962-0.026,1.925-0.026,2.886,0.001c0.702,0.021,1.224,0.011,1.201-0.972c-0.019-0.809-0.307-0.974-1.036-0.965
		c-1.747,0.022-0.629-1.269-0.847-1.952l-0.041,0.042c0.609-0.252,1.844,0.47,1.812-0.55c-0.055-1.676,0.896-1.409,1.874-1.412
		c0.743-0.001,1.486-0.046,2.228-0.07c0.144,0.752-0.959,2.158,0.944,1.994c1.729-0.149,0.216,1.767,1.329,1.941
		c0.158,0.025,0.322,0.011,0.483,0.012c0.592,0.001,1.183-0.012,1.773,0.004c0.566,0.016,1.05,0.049,1.021-0.793
		c-0.024-0.727-0.033-1.284-1.002-1.145c-0.509,0.074-1.044,0.012-0.924-0.711c0.205-1.239-0.536-1.254-1.421-1.215
		c-0.749,0.033-1.502-0.021-2.254-0.038c-0.168-0.988,0.013-2.196-1.702-1.945c-0.563,0.083-0.306-0.672-0.338-1.05
		c-0.029-0.341-0.112-0.909,0.454-0.824c1.887,0.28,1.406-1.048,1.436-2.028c0.021-0.699-0.018-1.4,0.01-2.098
		c0.035-0.899,0.129-1.779-1.25-1.599c-0.762,0.1-0.701-0.516-0.656-0.986c0.087-0.9-0.465-0.879-1.11-0.914
		c-0.873-0.046-0.764,0.511-0.762,1.045c0.003,0.969-0.09,1.948,0.021,2.904c0.189,1.625-0.415,2.163-1.963,1.672l0.03,0.03
		c-0.046-0.992,0.143-2.135-1.521-1.857c-0.575,0.096-0.489-0.482-0.449-0.818c0.104-0.875-0.282-1.066-1.099-1.083
		c-0.972-0.019-0.833,0.568-0.83,1.151c0.002,0.484,0.008,0.969-0.002,1.454c-0.011,0.605,0.225,1.302-0.875,1.264
		c-0.814-0.028-1.208-0.208-1.07-1.077c0.121-0.756-0.314-0.875-0.953-0.882c-0.376-0.004-0.871,0.301-1.146-0.245l0.025,0.017
		c0.289-0.99,0.412-1.858-1.104-1.667c-0.584,0.074-0.709-0.288-0.699-0.798c0.022-1.078-0.02-2.158,0.014-3.236
		c0.031-0.996,0.196-1.938-1.392-1.747c-0.85,0.102-0.474-0.769-0.546-1.232c-0.104-0.667,0.29-0.832,0.871-0.803
		c0.525,0.026,1.183-0.128,1.086,0.74c-0.098,0.885,0.17,1.231,1.133,1.209c1.178-0.028,0.747-0.835,0.76-1.361
		c0.044-1.779,0.061-3.562-0.002-5.339c-0.029-0.821,0.28-0.97,1.021-0.991c0.829-0.024,1.042,0.312,0.948,1.038
		c-0.021,0.159-0.017,0.325,0,0.485c0.076,0.74-0.341,1.93,0.193,2.132c0.946,0.357,2.11,0.179,3.181,0.151
		c0.681-0.017,0.431-0.61,0.467-0.992c0.036-0.386,0.026-0.854-0.532-0.756c-1.786,0.311-1.403-0.947-1.371-1.893
		c0.022-0.673-0.349-1.77,0.239-1.935c1.049-0.294,2.258-0.194,3.363-0.024c0.535,0.082,0.202,0.846,0.256,1.297
		c0.061,0.512-0.272,0.651-0.712,0.603c-0.793-0.087-1.306-0.001-1.243,1.058c0.068,1.161,0.855,0.697,1.391,0.752
		c0.587,0.062,1.499,0.252,1.722-0.036c0.766-0.993,2.214-1.712,2.485-2.587c0.378-1.219,0.865-1.204,1.733-1.183
		c0.485,0.012,0.973,0.031,1.456-0.004c0.691-0.05,0.954,0.216,0.93,0.926c-0.045,1.293-0.062,2.591,0.004,3.882
		c0.046,0.894-0.327,1.135-1.137,1.068c-0.589-0.049-1.188-0.048-1.778,0c-0.729,0.06-1.155-0.141-1.04-0.958
		c0.11-0.779-0.229-0.982-0.993-1.011c-0.943-0.036-0.897,0.486-0.874,1.113c0.021,0.539,0.049,1.083-0.006,1.617
		c-0.077,0.752,0.145,1.13,0.962,1.006c0.968-0.146,1.013,0.462,0.993,1.189c-0.034,1.24,0.011,2.481-0.018,3.721
		c-0.014,0.578,0.098,0.918,0.784,0.867c0.546-0.042,1.157,0.069,1.053-0.782c-0.114-0.929,0.271-1.202,1.187-1.181
		c1.1,0.025,0.84,0.759,0.844,1.352c0.017,2.374,0.063,4.749-0.02,7.119c-0.035,1.022,0.271,1.358,1.259,1.225
		c0.529-0.072,1.078-0.04,1.616-0.006c0.587,0.037,0.92-0.108,0.856-0.789c-0.05-0.533,0.071-1.028-0.772-1.102
		c-2.264-0.198-0.865-1.947-1.105-2.958c-0.301-1.267,0.82-0.94,1.495-0.951c2.46-0.038,2.46-0.024,2.46,2.468
		c0,0.27,0,0.54,0,0.809c0,2.638,0,2.629,2.682,2.522c0.557-0.022,1.067,0.064,1.028-0.791c-0.03-0.664-0.027-1.214-0.92-1.077
		c-0.909,0.139-1.104-0.335-1.039-1.128c0.053-0.643,0.042-1.295,0.003-1.94c-0.046-0.751,0.341-0.881,0.988-0.889
		c0.697-0.008,1.154,0.098,1.096,0.946c-0.046,0.644,0.009,1.294-0.014,1.941c-0.021,0.588-0.007,1.021,0.814,1.021
		c0.764,0,1.115-0.186,0.986-0.99c-0.131-0.811,0.295-1.057,1.029-0.972c0.159,0.019,0.326-0.017,0.484,0.006
		c0.777,0.114,1.969-0.424,2.253,0.268c0.381,0.929,0.188,2.12,0.126,3.191c-0.045,0.778-0.742,0.381-1.155,0.446
		c-0.479,0.076-0.838-0.061-0.814-0.677c0.024-0.622,0.179-1.276-0.896-1.254c-1.049,0.021-0.928,0.659-0.916,1.294
		c0.01,0.494-0.228,0.722-0.681,0.641c-1.259-0.226-1.266,0.55-1.233,1.437c0.035,0.97,0.036,1.942-0.001,2.912
		c-0.033,0.873-0.061,1.649,1.206,1.43c0.752-0.13,0.697,0.434,0.71,0.933c0.015,0.583,0.018,1.069-0.816,1.023
		c-0.389-0.022-1.173-0.314-1.061,0.507c0.242,1.762-0.95,1.393-1.913,1.408c-1.006,0.015-2.291-0.355-1.965,1.455
		c-1.243,0.355-1.771,1.354-2.495,2.315c-0.371,0.492-1.934,0.096-2.957,0.076c-0.122-0.002-0.349-0.169-0.346-0.252
		c0.046-1.177-0.282-1.875-1.681-1.721c-0.454,0.05-0.33-0.608-0.298-0.938c0.083-0.86-0.376-0.924-1.067-0.957
		c-0.857-0.04-0.798,0.458-0.789,1.018c0.016,0.971,0.01,1.941,0.013,2.912l0.035-0.033c-0.924-0.098-2.299,0.55-2.061-1.381
		c0.098-0.785-0.645-0.493-1.065-0.551c-0.483-0.067-0.809,0.028-0.801,0.656c0.028,2.097,0.024,4.195,0.004,6.293
		c-0.006,0.635,0.372,0.711,0.831,0.651c0.971-0.127,1.137,0.345,1.138,1.21c0.002,1.108-0.733,0.807-1.321,0.853
		c-0.054,0.004-0.107,0-0.162,0.001c-2.392,0.02-2.418,0.02-2.403,2.437c0.006,0.899-0.005,1.643-1.234,1.421
		c-0.563-0.101-0.75,0.189-0.724,0.731c0.032,0.644,0.042,1.293-0.002,1.936c-0.049,0.698,0.072,1.159,0.927,1.021
		c0.732-0.118,1.043,0.145,1.047,0.955c0.005,0.816-0.191,1.144-1.064,1.1c-1.495-0.075-0.799,0.973-0.775,1.663l0.027-0.024
		c-0.942,0.202-2.174,1.007-2.092-0.97c0.032-0.769-0.478-0.688-0.964-0.687c-0.497,0.001-1.018-0.036-0.955,0.713
		c0.004,0.054,0.003,0.107-0.001,0.161c-0.083,0.947,0.434,2.277-0.238,2.745c-0.696,0.484-1.95,0.179-2.959,0.198
		c-0.859,0.017-1.72,0.02-2.579-0.001c-0.981-0.023-2.307,0.431-2.013-1.438c0.065-0.411-0.339-0.477-0.681-0.469
		c-2.276,0.055-0.925-1.663-1.192-2.55c-0.267-0.884,0.016-1.599,1.208-1.406c0.771,0.125,0.692-0.436,0.691-0.922
		c-0.003-1.289,0.004-2.578-0.003-3.867c-0.003-0.512,0.003-1.062,0.711-0.964c1.561,0.217,1.23-0.836,1.202-1.705
		c2-0.525,4.039-0.214,6.05-0.18c1.385,0.024,1.996-0.31,1.76-1.732c0.907-0.45,1.875-0.179,2.811-0.199
		c0.725-0.015,1.038-0.174,1.037-0.983c-0.001-0.771-0.334-0.901-0.962-0.848c-1.003,0.085-2.023-0.162-3.015,0.142
		c0.031-0.374,0.098-0.747,0.077-1.115c-0.019-0.329,0.219-0.837-0.318-0.92c-0.457-0.071-1.007-0.1-1.396,0.092
		c-0.417,0.207-0.236,0.798-0.163,1.173c0.219,1.118,1.356,0.127,1.834,0.729c0.046,0.661,0.091,1.321,0.137,1.982
		c-0.776-0.312-1.588-0.149-2.376-0.13c-1.003,0.024-1.851,0.028-1.59-1.375c0.1-0.538-0.287-0.619-0.701-0.572
		c-0.396,0.045-1.17-0.139-1.099,0.303c0.321,1.988-1.18,1.534-2.176,1.772c0.266-2.245,0.266-2.245-1.933-1.957
		c0.257-2.198,0.257-2.198-1.934-1.955c0.039-0.317,0.129-0.639,0.099-0.949c-0.036-0.372,0.272-0.934-0.347-1.055
		c-0.397-0.078-0.933-0.107-1.225,0.099c-0.414,0.292-0.267,0.908-0.136,1.321c0.271,0.852,1.168,0.125,1.65,0.542
		c0.016,1.271,0.566,2.014,1.929,1.958c-0.105,1.386,0.731,1.849,1.925,1.961C141.935,152.822,141.881,153.473,141.775,154.126z
		 M147.573,158.782c0-3.02,0-3.009-2.815-2.86c-0.579,0.03-1.045,0.008-1.027,0.827c0.014,0.674,0.18,1.017,0.906,0.947
		c0.568-0.054,1.03-0.037,1.06,0.786c0.033,0.926-0.137,1.341-1.213,1.331c-1.122-0.01-2.849-0.786-2.752,1.57
		c0.018,0.433-0.622,0.305-0.969,0.294c-1.094-0.034-0.951,1.215-0.795,1.267c1.262,0.42,1.666,1.595,2.479,2.363
		c0.535,0.504,2.074,0.355,2.931-0.024c0.671-0.297,0.148-1.477,0.256-2.255c0.021-0.158,0.021-0.324,0-0.483
		c-0.099-0.764,0.209-1.126,0.989-0.995c0.819,0.137,1.032-0.242,0.961-0.992C147.528,159.971,147.573,159.374,147.573,158.782z
		 M170.611,137.567c0-0.644-0.022-1.289,0.006-1.932c0.027-0.625-0.088-0.993-0.861-0.98c-0.706,0.012-1.005,0.247-0.902,0.933
		c0.139,0.929-0.371,1.112-1.133,1.012c-0.837-0.109-0.775,0.442-0.81,1.006c-0.04,0.674,0.146,1.029,0.881,0.911
		c0.857-0.138,1.188,0.246,1.058,1.078c-0.117,0.747,0.271,0.856,0.923,0.879c0.784,0.027,0.877-0.353,0.846-0.975
		C170.586,138.857,170.61,138.212,170.611,137.567z M151.636,144.335c-0.367,0-0.641-0.032-0.903,0.007
		c-0.494,0.073-1.214-0.342-1.238,0.718c-0.02,0.904,0.234,1.301,1.163,1.163c1-0.148,0.778,0.585,0.797,1.136
		c0.013,0.38-0.013,0.815,0.547,0.763c0.447-0.042,1.188,0.277,1.278-0.292c0.167-1.047,0.255-2.186,0.001-3.192
		C153.11,143.964,152.132,144.488,151.636,144.335z M151.454,122.18c0,0.538,0.012,1.075-0.003,1.612
		c-0.017,0.656-0.118,1.231,0.924,1.219c0.943-0.011,1.032-0.419,1.006-1.163c-0.041-1.127-0.053-2.259,0.003-3.385
		c0.04-0.792-0.127-1.141-1.034-1.137c-0.884,0.004-0.94,0.416-0.902,1.081C151.481,120.996,151.454,121.589,151.454,122.18z
		 M149.608,123.14c-0.475-0.582,0.678-1.828-0.998-1.877c-1.615-0.047-1.02,1.117-0.965,1.773c0.058,0.689-0.802,1.964,0.952,1.956
		C150.288,124.984,149.134,123.714,149.608,123.14z M142.863,146.287c-0.699-0.113-1.099,0.052-1.047,0.896
		c0.038,0.632,0.151,0.962,0.885,0.973c0.739,0.011,1.05-0.182,1.016-0.971C143.691,146.564,143.64,146.121,142.863,146.287z
		 M159.214,114.488c-0.125,0.702,0.177,0.913,0.871,0.923c0.808,0.013,0.961-0.339,0.974-1.056c0.014-0.824-0.467-0.757-1.025-0.803
		C159.275,113.491,159.104,113.845,159.214,114.488z M141.75,133.711c0.146-0.781-0.217-0.981-0.964-0.976
		c-0.75,0.005-0.834,0.363-0.877,0.979c-0.058,0.83,0.337,0.93,1.034,0.951C141.705,134.687,141.856,134.351,141.75,133.711z
		 M164.828,143.229c0.197-0.649-0.14-0.844-0.844-0.849c-0.665-0.005-0.967,0.131-0.938,0.881c0.025,0.688,0.081,1.095,0.947,1.064
		C164.762,144.298,164.91,143.952,164.828,143.229z M166.936,141.258c-0.014,0.577-0.156,1.195,0.807,1.137
		c0.607-0.037,1.02-0.075,0.955-0.842c-0.047-0.57,0.124-1.186-0.827-1.109C167.297,140.49,166.777,140.449,166.936,141.258z
		 M154.315,119.192c0.642,0.083,0.98-0.064,1.004-0.833c0.026-0.869-0.391-0.918-1.071-0.949c-0.76-0.034-0.863,0.292-0.878,0.944
		C153.354,119.103,153.663,119.307,154.315,119.192z M156.285,119.371c-0.603-0.085-1.021-0.002-0.974,0.793
		c0.036,0.585,0.017,1.032,0.824,0.975c0.635-0.045,1.127-0.021,1.102-0.91C157.218,119.507,156.954,119.27,156.285,119.371z
		 M140.902,123.224c-0.624-0.088-0.998,0.06-0.995,0.833c0.002,0.697,0.226,0.938,0.924,0.936c0.639-0.002,0.987-0.094,0.953-0.858
		C141.756,123.501,141.693,123.06,140.902,123.224z M150.511,155.943c-0.607-0.069-1.018-0.021-1.017,0.781
		c0.001,0.755,0.209,1.037,0.982,0.984c0.571-0.039,1.005-0.001,0.992-0.81C151.458,156.16,151.288,155.781,150.511,155.943z
		 M156.107,124.964c0.634,0.051,1.16,0.066,1.13-0.851c-0.022-0.702-0.259-0.934-0.935-0.918c-0.578,0.014-1.058-0.015-0.987,0.807
		C155.362,124.558,155.272,125.122,156.107,124.964z M154.282,125.135c-0.69-0.131-0.911,0.165-0.912,0.872
		c-0.003,0.692,0.187,0.93,0.904,0.92c0.727-0.01,1.061-0.15,1.044-0.979C155.303,125.144,154.902,125.069,154.282,125.135z
		 M137.886,135.618c0.102-0.676-0.134-0.942-0.866-0.964c-0.897-0.028-0.879,0.455-0.92,1.103c-0.052,0.81,0.382,0.807,0.983,0.842
		C137.884,136.644,137.976,136.23,137.886,135.618z M135.958,137.503c0.162-0.808-0.291-0.907-0.989-0.922
		c-0.844-0.019-0.721,0.501-0.78,1.031c-0.093,0.838,0.339,0.904,1.02,0.926C136.051,138.566,136.001,138.077,135.958,137.503z
		 M135.956,149.099c0.134-0.699-0.166-0.911-0.87-0.914c-0.713-0.003-0.919,0.238-0.902,0.926c0.016,0.66,0.188,0.948,0.912,0.954
		C135.835,150.069,136.05,149.767,135.956,149.099z"/>
	<path fill-rule="evenodd" clip-rule="evenodd" fill="#131111" d="M159.211,146.306c0.98-0.101,2.151-0.54,1.943,1.255
		c-0.075,0.656,0.492,0.57,0.91,0.572c1.24,0.006,2.481,0.032,3.721-0.008c0.77-0.025,1.063,0.148,1.186,1.037
		c0.259,1.89,1.804,0.506,2.708,0.854c0.611,0.234,0.963-0.136,0.95-0.865c-0.011-0.635-0.086-1.052-0.863-0.946
		c-0.682,0.093-1.093-0.062-1.107-0.923c-0.016-0.888,0.319-1.167,1.13-1.061c0.647,0.085,0.903-0.236,0.818-0.842
		c-0.12-0.854,0.229-1.116,1.077-1.104c0.776,0.011,1.104,0.252,0.997,1.026c-0.008,0.053-0.023,0.132,0.004,0.158
		c0.885,0.853,1.981,1.456,2.614,2.63c0.175,0.324,1.235,0.121,1.117-0.899c-0.068-0.585-0.058-1.189-0.001-1.777
		c0.077-0.81-0.158-1.225-1.044-1.078c-0.893,0.147-0.886-0.421-0.92-1.077c-0.039-0.759,0.3-0.858,0.95-0.895
		c3.001-0.17,3-0.191,3,2.862c0,0.647-0.03,1.296,0.008,1.941c0.042,0.704-0.102,1.191-0.95,1.042
		c-1.011-0.179-1.139,0.491-0.941,1.149c0.26,0.869-0.938,2.346,0.87,2.567c1.986,0.242,0.742,1.652,0.971,2.489
		c0.197,0.723,0.28,1.726-1.084,1.526c-0.66-0.097-0.818,0.271-0.795,0.867c0.036,0.915,0,1.833,0.012,2.75
		c0.012,0.998-0.406,2.234,1.442,2.043c0.694-0.071,0.4,0.724,0.462,1.152c0.089,0.624-0.208,0.861-0.831,0.847
		c-1.24-0.027-2.484,0.046-3.721-0.024c-0.928-0.053-1.176,0.282-1.188,1.189c-0.034,2.648-0.076,2.647-2.723,2.647
		c-0.701,0-1.403-0.027-2.103,0.008c-0.691,0.035-1.095-0.075-1.095-0.939c0.001-0.871,0.307-1.15,1.137-1.077
		c0.642,0.056,1.296-0.024,1.939,0.021c0.656,0.046,0.824-0.24,0.812-0.848c-0.011-0.61-0.055-1.09-0.851-0.985
		c-0.159,0.021-0.323,0.004-0.484,0.002c-2.475-0.036-2.476-0.036-2.524-2.573c-0.013-0.625,0.182-1.274-0.899-1.273
		c-1.112,0.001-0.845,0.696-0.866,1.294c-0.016,0.431-0.035,0.865,0.004,1.294c0.074,0.813-0.06,1.405-1.085,1.261
		c-0.766-0.107-0.842,0.338-0.871,0.968c-0.036,0.765,0.307,0.939,0.954,0.852c0.783-0.105,1.007,0.248,1.02,1.011
		c0.015,0.803-0.292,0.971-1.033,1.005c-2.953,0.138-2.951,0.165-2.951-2.787c0-0.701-0.035-1.404,0.007-2.103
		c0.046-0.78-0.398-0.847-1.01-0.863c-0.619-0.017-0.886,0.183-0.841,0.826c0.041,0.59,0.026,1.187,0.003,1.778
		c-0.021,0.538,0.251,1.225-0.761,1.235c-0.818,0.008-1.388-0.072-1.229-1.101c0.079-0.507-0.133-0.9-0.697-0.808
		c-1.257,0.204-1.245-0.554-1.227-1.44c0.035-1.671-0.002-3.344,0.017-5.016c0.007-0.643-0.274-1.397,0.933-1.413
		c1.278-0.017,1.027,0.772,1.032,1.491c0.009,1.133,0.033,2.267-0.009,3.397c-0.025,0.662,0.122,0.956,0.874,0.947
		c0.763-0.008,1.066-0.217,1.014-1.011c-0.061-0.913-0.032-1.834-0.009-2.75c0.025-0.983-0.463-2.329,1.429-2.07
		c0.395,0.055,0.56-0.367,0.46-0.688c-0.341-1.097,1.129-3.172-1.588-3.01c-0.041-1.417-0.931-1.984-2.158-2.35
		c-0.1-0.03-0.59-1.666,0.91-1.563c1.595,0.109,0.612-1.29,1.06-1.857L159.211,146.306z M165.875,157.692
		c2.812,0,2.812,0,2.812-2.692c0-2.926,0-2.926-2.894-2.926c-2.726,0-2.726,0-2.726,2.768
		C163.067,157.692,163.067,157.692,165.875,157.692z M170.77,160.541c0,0.755,0.025,1.511-0.007,2.265
		c-0.032,0.784,0.504,0.651,0.977,0.675c0.489,0.024,0.845-0.052,0.807-0.675c-0.033-0.538,0.019-1.08-0.011-1.618
		c-0.051-0.918-0.098-1.797,1.268-1.575c0.634,0.103,0.686-0.311,0.672-0.794c-0.018-0.646-0.074-1.304,0.012-1.939
		c0.145-1.061-0.523-0.999-1.189-0.939c-1.27,0.113-0.082,1.607-0.976,1.833c-0.782,0.198-1.818-0.103-1.567,1.313
		C170.838,159.557,170.768,160.055,170.77,160.541z M174.471,151.047c0-0.641-0.035-1.284,0.01-1.922
		c0.047-0.663-0.132-0.962-0.872-0.939c-0.651,0.021-0.976,0.136-0.944,0.884c0.055,1.28,0.041,2.564,0.005,3.845
		c-0.019,0.665,0.174,0.956,0.894,0.958c0.683,0.001,0.973-0.192,0.918-0.903C174.432,152.332,174.471,151.688,174.471,151.047z
		 M162.093,161.521c0.704,0.192,0.847-0.204,0.868-0.869c0.024-0.733-0.291-0.883-0.949-0.9c-0.724-0.02-0.887,0.259-0.899,0.931
		C161.099,161.405,161.344,161.668,162.093,161.521z M175.448,154.027c-0.687-0.185-0.86,0.182-0.882,0.855
		c-0.022,0.727,0.283,0.892,0.945,0.906c0.696,0.016,0.916-0.208,0.915-0.909C176.425,154.174,176.204,153.885,175.448,154.027z"/>
	<path fill-rule="evenodd" clip-rule="evenodd" fill="#131111" d="M122.564,118.292c0-1.884,0.041-3.769-0.019-5.651
		c-0.027-0.846,0.221-1.1,1.079-1.09c3.768,0.045,7.536,0.042,11.304,0.002c0.886-0.009,1.223,0.21,1.21,1.163
		c-0.05,3.767-0.04,7.535-0.006,11.303c0.007,0.838-0.26,1.128-1.11,1.12c-3.822-0.035-7.644-0.033-11.465-0.001
		c-0.791,0.007-1.021-0.279-1.006-1.033C122.589,122.167,122.564,120.229,122.564,118.292z M129.421,113.567
		c-1.347,0-2.695,0.026-4.042-0.011c-0.628-0.017-0.837,0.192-0.83,0.825c0.028,2.587,0.033,5.174-0.002,7.761
		c-0.01,0.698,0.194,0.93,0.908,0.919c2.586-0.038,5.174-0.03,7.761-0.004c0.625,0.006,0.841-0.2,0.835-0.83
		c-0.026-2.587-0.033-5.175,0.004-7.761c0.01-0.708-0.209-0.94-0.915-0.912C131.902,113.603,130.661,113.567,129.421,113.567z"/>
	<path fill-rule="evenodd" clip-rule="evenodd" fill="#131111" d="M129.371,167.407c-1.938,0-3.876-0.03-5.813,0.016
		c-0.761,0.018-1.018-0.203-1.011-0.99c0.037-3.821,0.035-7.644,0.001-11.464c-0.007-0.812,0.191-1.143,1.074-1.133
		c3.768,0.043,7.536,0.042,11.303,0.001c0.905-0.01,1.22,0.259,1.209,1.188c-0.043,3.768-0.041,7.536-0.001,11.304
		c0.009,0.856-0.275,1.117-1.111,1.095C133.14,167.373,131.255,167.407,129.371,167.407z M128.868,165.41
		c1.548,0,2.844-0.056,4.134,0.02c0.888,0.052,1.072-0.289,1.056-1.104c-0.049-2.424-0.062-4.852,0.005-7.275
		c0.026-0.955-0.318-1.157-1.195-1.138c-2.371,0.054-4.745,0.08-7.113-0.01c-1.059-0.04-1.272,0.332-1.213,1.282
		c0.077,1.234,0.006,2.479,0.022,3.718c0.018,1.445-0.495,3.388,0.238,4.205C125.656,166.061,127.637,165.274,128.868,165.41z"/>
	<path fill-rule="evenodd" clip-rule="evenodd" fill="#131111" d="M171.688,125.124c-1.884,0-3.77-0.04-5.651,0.017
		c-0.91,0.027-1.217-0.265-1.206-1.19c0.043-3.768,0.04-7.536,0.001-11.304c-0.01-0.86,0.282-1.1,1.113-1.092
		c3.821,0.036,7.644,0.034,11.465,0.001c0.764-0.007,1.016,0.208,1.008,0.992c-0.035,3.821-0.048,7.644,0.006,11.464
		c0.015,0.997-0.399,1.149-1.245,1.126C175.349,125.09,173.518,125.124,171.688,125.124z M176.404,118.289
		c0-1.24-0.038-2.481,0.014-3.718c0.031-0.743-0.152-1.039-0.967-1.022c-2.532,0.051-5.066,0.037-7.599,0.006
		c-0.668-0.008-0.957,0.135-0.944,0.883c0.043,2.586,0.042,5.174,0.001,7.761c-0.012,0.773,0.342,0.863,0.974,0.857
		c2.533-0.023,5.067-0.045,7.599,0.01c0.862,0.019,0.956-0.363,0.934-1.059C176.375,120.77,176.404,119.529,176.404,118.289z"/>
	<path fill-rule="evenodd" clip-rule="evenodd" fill="#131111" d="M143.67,113.578c0.027,0.907,0.06,1.814,0.079,2.721
		c0.012,0.588,0.109,1.184-0.843,1.153c-0.746-0.024-1.293-0.093-1.141-1.025c0.136-0.831-0.337-0.824-1-0.966
		c-2.047-0.439-0.595-2.074-0.882-3.125c-0.294-1.074,0.758-0.681,1.303-0.758c0.351-0.049,0.71,0.081,0.629,0.499
		c-0.336,1.729,1.046,1.286,1.886,1.531L143.67,113.578z"/>
	<path fill-rule="evenodd" clip-rule="evenodd" fill="#131111" d="M155.361,138.494c-1.453,0.26-2.354-0.039-2.01-1.818
		c0.129-0.669,0.051-1.378,0.066-2.069l-0.039,0.044c1.69-0.35,2.2,0.42,1.965,2c-0.092,0.616-0.021,1.257-0.023,1.886
		L155.361,138.494z"/>
	<path fill-rule="evenodd" clip-rule="evenodd" fill="#131111" d="M176.301,136.637c0.702,0.002,1.775-0.465,1.993,0.295
		c0.296,1.033,0.154,2.244-0.033,3.338c-0.072,0.416-0.869,0.149-1.334,0.179c-0.573,0.037-0.515-0.406-0.522-0.782
		c-0.02-1.022-0.041-2.044-0.062-3.067L176.301,136.637z"/>
	<path fill-rule="evenodd" clip-rule="evenodd" fill="#131111" d="M151.579,165.268c0.946,0.296,1.921,0.151,2.875,0.121
		c0.927-0.03,0.851,0.5,0.891,1.124c0.048,0.733-0.248,0.965-0.93,0.9c-0.374-0.035-0.754-0.006-1.132-0.006
		c-2.04,0-2.04,0-1.679-2.162C151.606,165.243,151.579,165.268,151.579,165.268z"/>
	<path fill-rule="evenodd" clip-rule="evenodd" fill="#131111" d="M139.905,118.218c0.106,0.804-0.085,1.168-0.928,1.169
		c-0.857,0.001-1.106-0.279-1.106-1.12c0-0.826,0.346-0.988,1.066-0.992C139.696,117.272,140.096,117.485,139.905,118.218z"/>
	<path fill-rule="evenodd" clip-rule="evenodd" fill="#131111" d="M177.438,167.379c-0.889,0.16-1.027-0.249-1.06-0.976
		c-0.041-0.938,0.427-0.985,1.161-1.016c0.929-0.038,0.829,0.519,0.875,1.121C178.478,167.35,178.093,167.558,177.438,167.379z"/>
	<path fill-rule="evenodd" clip-rule="evenodd" fill="#131111" d="M143.702,113.609c0.285-0.704-0.803-2.043,1.001-2.057
		c0.751-0.005,0.978,0.205,0.991,0.973c0.032,1.814-1.328,0.757-2.024,1.053L143.702,113.609z"/>
	<path fill-rule="evenodd" clip-rule="evenodd" fill="#131111" d="M147.407,128.667c0.344,0.229,0.181,0.574,0.185,0.872
		c0.009,0.663,0.215,1.413-0.951,1.329c-0.706-0.051-1.009-0.153-1.038-0.965c-0.036-1.009,0.421-1.162,1.236-1.077
		c0.192,0.02,0.398-0.088,0.596-0.139C147.432,128.685,147.407,128.667,147.407,128.667z"/>
	<path fill-rule="evenodd" clip-rule="evenodd" fill="#131111" d="M153.411,132.703c-0.437-1.731,0.414-2.176,1.942-1.943
		l-0.03-0.03c0.004,2.107,0.004,2.107-1.944,1.941L153.411,132.703z"/>
	<path fill-rule="evenodd" clip-rule="evenodd" fill="#131111" d="M153.418,134.606c-0.984,0.062-2.318,0.576-1.955-1.298
		c0.247-1.276,1.33-0.283,1.948-0.604l-0.032-0.032c0,0.66,0,1.319,0,1.979L153.418,134.606z"/>
	<path fill-rule="evenodd" clip-rule="evenodd" fill="#131111" d="M176.343,136.6c-0.053,0-0.106,0.005-0.159,0
		c-0.785-0.077-1.884,0.446-1.744-1.176c0.097-1.109,0.848-0.857,1.346-0.748c1.292,0.283,0.594,1.231,0.518,1.959
		C176.301,136.637,176.343,136.6,176.343,136.6z"/>
	<path fill-rule="evenodd" clip-rule="evenodd" fill="#131111" d="M149.488,138.494c0.37-0.597-0.727-1.817,0.82-1.917
		c0.682-0.044,1.2-0.063,1.183,0.935c-0.016,0.874-0.308,1.125-1.098,1.016c-0.313-0.043-0.631-0.05-0.949-0.076
		C149.442,138.451,149.488,138.494,149.488,138.494z"/>
	<path fill-rule="evenodd" clip-rule="evenodd" fill="#131111" d="M165.886,155.917c-0.761,0.129-1.046-0.18-1.058-0.952
		c-0.011-0.797,0.199-1.165,1.071-1.131c0.714,0.027,1.058,0.19,1.046,0.991C166.935,155.606,166.776,156.081,165.886,155.917z"/>
	<path fill-rule="evenodd" clip-rule="evenodd" fill="#131111" d="M126.384,118.1c0-2.709,0-2.709,2.684-2.709
		c3.21,0,3.21,0,3.21,3.173c0,2.721,0,2.721-2.695,2.721C126.384,121.285,126.384,121.285,126.384,118.1z"/>
	<path fill-rule="evenodd" clip-rule="evenodd" fill="#131111" d="M129.375,163.587c-2.991,0-2.991,0-2.991-3.047
		c0-2.848,0-2.848,2.892-2.848c3.002,0,3.002,0,3.002,3.059C132.278,163.587,132.278,163.587,129.375,163.587z"/>
	<path fill-rule="evenodd" clip-rule="evenodd" fill="#131111" d="M171.717,115.391c2.863,0,2.863,0,2.863,2.852
		c0,3.042,0,3.042-3.018,3.042c-2.876,0-2.876,0-2.876-2.863C168.687,115.391,168.687,115.391,171.717,115.391z"/>
</g>
</svg>
